<!-- SPDX-FileCopyrightText: © 2024 Schneider Electric SPDX-License-Identifier: LicenseRef-Proprietary -->
<svg xmlns="http://www.w3.org/2000/svg" viewBox="0 0 192 64">
  <path fill="#fff" d="M137.32 64h1.94c2.53 0 5.3-.12 7.84-.61 3.5-.5 7-1.48 10.5-2.7a64.84 64.84 0 0 0 16.54-8.73 66.33 66.33 0 0 0 11.1-10.07c2.3-2.7 4.59-5.65 6.76-8.72v-.5a73.57 73.57 0 0 0-6.4-7.86 72.12 72.12 0 0 0-6.76-6.88 82.76 82.76 0 0 0-9.05-7.12 68.48 68.48 0 0 0-14.48-7.62c-4.95-1.72-9.42-2.82-13.76-3.07-.12-.12-.24-.12-.36-.12h-3.87c-.6.12-1.08.12-1.56.12h-.6c-3.27.13-6.65.74-9.9 1.6a46.82 46.82 0 0 0-12.2 5.16 36.5 36.5 0 0 0-8.2 6.51 31.96 31.96 0 0 0-7 11.3c-.37.98-.85 1.35-1.81 1.35H.69c-.2 0-.41.08-.53.13l-.08.03.01-.03c-.03.02-.03.03-.01.03-.11.35-.1.6.01.95.12.37.36.49.72.49h104.9c.96 0 1.68-.37 2.4-1.23 1.57-1.84 3.26-3.93 4.95-6.02 2.58-2.96 5.15-6.14 7.34-8.83l.5-.63a3.04 3.04 0 0 1 2.54-1.47h.12c1.33 0 2.18.61 2.78 1.72.6 1.1.48 2.21-.24 3.2-.6.85-1.33 1.71-2.05 2.57-.06.12-.15.22-.24.3a62.19 62.19 0 0 1-2.05 2.52c-.43.5-.87 1.04-1.33 1.6-1.33 1.6-2.66 3.2-3.63 4.43-.6.86-.36 1.35-.11 1.6.12.24.36.36.72.36h6.28c.72 0 1.32-.37 1.93-.98a294.2 294.2 0 0 1 3-3.48 262.1 262.1 0 0 0 4.48-5.24c2.3-2.83 4.7-5.65 6.76-7.99.24-.3.51-.61.78-.92.28-.3.55-.61.79-.92.36-.5.84-1.1 1.32-1.6a2.75 2.75 0 0 1 2.3-1.23c.24 0 .6 0 .84.13 1.33.24 2.06 1.23 2.3 2.58a3.2 3.2 0 0 1-.85 2.58c-.18.18-.36.4-.54.61-.18.22-.36.43-.54.62l-.49.49a78.7 78.7 0 0 0-3.72 4.19l-1.47 1.7-1.95 2.28c-1.18 1.4-2.35 2.76-3.36 3.87-.24.36-.48.61-.72.86-.17.08-.28.23-.37.35l-.12.14c-.36.49-.48.86-.24 1.22.25.5.49.62 1.09.62h.72c2.18.12 4.23.12 6.4.12h.12c.97 0 1.81-.37 2.54-1.23 1.44-1.78 2.92-3.56 4.4-5.34 1.48-1.78 2.96-3.56 4.4-5.34l.97-1.1.24-.25c.49-.62.97-1.23 1.45-1.72a3 3 0 0 1 2.17-.99c.73 0 1.45.37 2.06.86a3.11 3.11 0 0 1 .24 4.3c-.3.37-.6.7-.9 1.05-.3.33-.61.67-.91 1.04-1.81 2.21-3.74 4.55-5.68 6.88-.36.5-.48.86-.24 1.35.13.37.49.5 1.09.5h27.76c.48 0 1.09 0 1.69.24a4.06 4.06 0 0 1 2.53 4.3 3.79 3.79 0 0 1-3.74 3.31h-19.91c-.73.13-.85.37-.97.62-.12.37-.12.73.24 1.1.97.99 2.18 2.34 3.26 3.57.38.38.73.77 1.06 1.13.3.34.59.66.87.95.6.74.85 1.6.85 2.46 0 .74-.36 1.48-.97 2.09-.6.5-1.32.74-2.05.74a3.4 3.4 0 0 1-2.53-1.23c-.95-.97-1.95-2.09-2.97-3.23l-1.62-1.8c-1.69-1.85-3.38-3.7-4.83-5.41a3.52 3.52 0 0 0-2.65-1.1h-7.37c-.36 0-.6.24-.84.6-.12.13-.24.5.12.87.24.3.51.6.78.92.28.3.55.61.79.92l.24.24c.66.8 1.36 1.57 2.05 2.34.7.77 1.4 1.53 2.05 2.33.73.74 1.45 1.6 2.18 2.46.12.18.3.37.51.58.21.22.45.46.7.77 1.56 1.72 3.61 4.05 4.46 5.04.72.98.97 2.08.6 3.19a3.23 3.23 0 0 1-2.41 2.09h-.6a3 3 0 0 1-2.18-.98l-3.98-4.43a594.6 594.6 0 0 1-4.59-5.28 39.36 39.36 0 0 0-2.65-3.07l-5.8-6.63-.6-.74a3.26 3.26 0 0 1-.48-.43c-.15-.15-.3-.3-.48-.43a2.4 2.4 0 0 0-1.33-.37h-8.21c-.48 0-.84.25-.96.62-.13.24-.25.6.24 1.1l.86.98c.43.48.71.8.95 1.1.26.28.5.55.82.94l1.1 1.28c.19.18.37.4.55.61.18.22.36.43.55.62.3.37.63.74.96 1.1.33.37.66.74.97 1.11.6.74.84 1.6.84 2.46-.12.73-.36 1.47-.97 1.96a2.8 2.8 0 0 1-2.05.86 3.2 3.2 0 0 1-2.41-1.1 29.6 29.6 0 0 1-1.62-1.8c-.3-.36-.55-.65-.8-.9l-.26-.32a85.59 85.59 0 0 0-2.51-2.88c-.24-.25-.45-.5-.66-.74-.22-.24-.43-.49-.67-.73-.72-.8-1.45-1.63-2.17-2.46a170 170 0 0 0-2.17-2.46 3.01 3.01 0 0 0-2.54-1.23H99.8c-1.33 0-2.3.74-2.54 2.21-.12.37 0 .74.12 1.11v.12a26.86 26.86 0 0 0 5.55 10.32c3.5 4.18 8.1 7.5 13.77 10.07 3.37 1.6 7 2.7 10.74 3.44 2.9.62 6.15.99 9.9 1.11ZM1.44 3.69h3.6v18.18h-3.6V3.69Zm7.44 0h5.4l3.24 12.28L20.64 3.7h5.4v18.06h-3.36V7.5L19.2 21.75h-3.36L12.24 7.5v14.25H8.88V3.69Zm26.52 0h-5.88v18.18h3.6v-6.88h2.4c1.56 0 3.48 0 4.8-.62 1.08-.49 2.88-1.84 2.88-5.03 0-3.07-1.68-4.42-2.76-5.04-.96-.49-1.92-.61-5.04-.61Zm-2.28 8.23V6.76h1.8c2.16 0 2.88 0 3.72.74.6.49.84 1.1.84 1.84 0 2.58-2.52 2.58-4.32 2.58h-2.04Zm21.6 9.82-1.56-4.05h-7.08l-1.44 4.05H40.8l6.96-18.18h3.84l7.08 18.18h-3.96Zm-2.76-7.12-2.4-6.76-2.4 6.76h4.8Zm13.92 7.5c5.76 0 6.96-4.43 7.32-5.9l-3.48-1.11c-.48 1.97-1.56 3.8-3.96 3.8-3.48 0-4.32-3.06-4.32-6.38 0-1.23 0-6.14 4.44-6.14 1.8 0 3.24 1.1 3.72 3.07l3.6-.86a7.39 7.39 0 0 0-1.68-3.2 7.5 7.5 0 0 0-5.4-2.08c-5.76 0-8.28 4.54-8.28 9.58 0 5.65 3.24 9.21 8.04 9.21ZM78.84 6.75h-5.28V3.69H87.6v3.07h-5.28v14.99h-3.48v-15Zm-72 26.29c2.04 0 3.24 1.1 3.96 3.19l2.16-.5c-.72-2.82-2.88-4.41-5.88-4.41-4.2 0-7.08 2.94-7.08 7.73 0 2.34.72 4.43 1.92 5.9 1.2 1.48 2.76 2.09 5.04 2.09 3.12 0 5.4-1.84 6.24-5.16l-2.04-.5c-.6 2.71-2.28 3.94-4.32 3.94-3.12 0-4.92-2.21-4.92-6.27 0-3.8 1.8-6.01 4.92-6.01Zm12.72 2.45c1.68 0 3 .61 3.96 1.84.84 1.1 1.08 2.34 1.08 3.93 0 3.81-2.16 5.78-5.04 5.78-1.68 0-3-.62-3.96-1.85-.84-1.1-1.08-2.33-1.08-3.93 0-3.68 2.16-5.77 5.04-5.77Zm0 10.07c1.8 0 3.24-1.47 3.24-4.17s-1.32-4.3-3.24-4.3c-1.92 0-3.24 1.47-3.24 4.3.12 2.7 1.44 4.17 3.24 4.17Zm13.68 1.23h1.8V40.4c0-2.33 1.2-3.31 2.64-3.31 1.68 0 1.92 1.35 1.92 2.7v7h1.8V39.2c0-2.46-1.2-3.69-3.36-3.69-1.44 0-2.52.74-3.36 1.97-.48-1.36-1.56-1.97-3-1.97-1.32 0-2.52.74-3.24 1.84v-1.6h-1.68V46.8h1.8v-5.77c0-1.1.12-1.97.48-2.7a2.71 2.71 0 0 1 2.28-1.23c1.44 0 1.92.86 1.92 2.45v7.25Zm12.6-9.58a3.46 3.46 0 0 1 3.12-1.72c2.76 0 4.56 2.21 4.56 5.65 0 3.69-2.04 5.9-4.68 5.9-1.2 0-2.16-.5-2.88-1.35v5.4h-1.8V35.75h1.68v1.47Zm2.88 8.35c1.68 0 3-1.35 3-4.3 0-2.7-1.2-4.17-2.88-4.17s-3 1.72-3 4.42c0 2.58 1.2 4.05 2.88 4.05Zm14.04-6.14v.37c-1.08.37-2.64.61-4.08.61-2.28.25-3.48 1.6-3.48 3.32 0 1.84 1.32 3.2 3.72 3.2 1.44 0 2.76-.5 3.96-1.6 0 .37.12.86.36 1.35h1.92a7.11 7.11 0 0 1-.6-3.32v-3.93c0-1.1 0-2.09-.6-2.82-.72-.86-1.92-1.23-3.6-1.23-2.88 0-4.32 1.1-4.8 3.44l1.8.24c.24-1.1.6-2.09 2.76-2.09 2.28 0 2.64 1.11 2.64 2.46Zm-2.78 2.54c.9-.14 1.87-.3 2.78-.7v.62c0 .98-.12 1.84-.84 2.58-.6.73-1.68 1.1-2.52 1.1-1.56 0-2.28-.61-2.28-1.72 0-1.41 1.28-1.62 2.86-1.88ZM72.6 35.5c-1.37 0-2.52.56-3.36 1.67V35.5h-1.68v11.06h1.8v-6.02c0-.86 0-1.6.36-2.21a2.81 2.81 0 0 1 2.52-1.36c1.8 0 2.28 1.36 2.28 2.95v6.76h1.8v-6.76c0-.98 0-1.96-.48-2.82-.6-.99-1.8-1.6-3.24-1.6Zm10.74 11.7.06-.15 4.08-11.3h-1.8l-2.28 6.39a60.7 60.7 0 0 0-.72 2.58c-.12-.86-.36-1.72-.72-2.58l-2.28-6.4h-2.04l4.08 11.06-.2.58c-.45 1.36-.7 2.13-2.08 2.13-.48 0-.84 0-1.08-.13l.24 1.72c.36.13.72.25 1.2.25 2 0 2.62-1.66 3.54-4.15Z" />
</svg>
