<svg viewBox="0 0 60 60" xmlns="http://www.w3.org/2000/svg" xmlns:xlink="http://www.w3.org/1999/xlink">
  <defs>
    <path d="M26.625 28.172H4.406C3.47 28.172 3 27.656 3 26.625V4.406C3 3.47 3.469 3 4.406 3h22.219c1.031 0 1.547.469 1.547 1.406v22.219c0 1.031-.516 1.547-1.547 1.547zm28.969 0H33.375c-1.031 0-1.547-.516-1.547-1.547V4.406c0-.937.516-1.406 1.547-1.406h22.219C56.53 3 57 3.469 57 4.406v22.219c0 1.031-.469 1.547-1.406 1.547zm-49.5-2.953h19.125V9.187l-9 12.657c-.375.469-.844.656-1.407.562-.468 0-.843-.281-1.124-.843a40.963 40.963 0 0 0-4.22-6.75c-.656-.844-.562-1.594.282-2.25.844-.563 1.547-.422 2.11.421 1.03 1.313 2.109 3.047 3.234 5.204l8.719-12.094H6.093v19.125zm28.687 0h19.125V6.094H34.781v19.125zM26.625 57H4.406C3.47 57 3 56.531 3 55.594V33.375c0-1.031.469-1.547 1.406-1.547h22.219c1.031 0 1.547.516 1.547 1.547v22.219c0 .937-.516 1.406-1.547 1.406zm28.969 0H33.375c-1.031 0-1.547-.469-1.547-1.406V33.375c0-1.031.516-1.547 1.547-1.547h22.219c.937 0 1.406.516 1.406 1.547v22.219C57 56.53 56.531 57 55.594 57zm-49.5-3.094h19.125V34.781H6.094v19.125zm28.687 0h19.125v-15.75l-9 12.657c-.281.468-.703.656-1.265.562-.563 0-.985-.281-1.266-.844a51.113 51.113 0 0 0-4.078-7.031c-.563-.75-.422-1.406.422-1.969.75-.656 1.406-.562 1.968.282 1.594 2.25 2.72 3.984 3.376 5.203L52.64 34.78H34.78v19.125z" id="a"/>
  </defs>
  <use fill="#00D244" xlink:href="#a"/>
</svg>
