<svg viewBox="0 0 60 60" xmlns="http://www.w3.org/2000/svg" xmlns:xlink="http://www.w3.org/1999/xlink">
  <defs>
    <path d="M47.93 35.203c5.906 2.39 9.07 5.695 9.07 9.352C57 51.515 45.187 57 30 57 14.883 57 3 51.516 3 44.555c0-3.657 3.164-6.961 8.93-9.282V12c0-.492.28-.914.703-1.195L23.602 3.28a1.482 1.482 0 0 1 1.687 0l10.758 7.383c.281.14.492.281.633.492.14.281.21.563.21.844v5.555l.493-.282a1.655 1.655 0 0 1 1.617 0l8.227 5.274c.421.281.703.703.703 1.265v11.391zM24.445 6.305l-8.297 5.765 8.297 5.696L32.812 12l-8.367-5.695zm-9.492 8.578v25.453l8.016 5.484V20.367l-8.016-5.484zm14.203 7.664l4.782-3.094v-4.57l-8.016 5.484V45.75l2.531-1.688v-20.25c0-.562.211-.984.703-1.265zm9-2.25l-5.414 3.445 5.414 3.516 5.485-3.445-5.485-3.516zM36.68 47.93V29.86l-5.274-3.376v18.141l5.274 3.305zm3.023-18.07v18l5.203-3.235v-18.14l-5.203 3.374zM30 53.976c14.133 0 24.047-4.922 24.047-9.422 0-2.11-2.25-4.29-6.117-6.117v6.96c0 .563-.282.985-.703 1.266L39 51.937c-.281.141-.563.211-.844.211s-.562-.07-.773-.21l-7.805-4.993-4.289 2.953a1.865 1.865 0 0 1-.844.211c-.28 0-.633-.07-.843-.21l-10.97-7.594c-.421-.282-.702-.703-.702-1.196v-2.601c-3.727 1.758-5.907 3.937-5.907 6.047 0 4.5 9.844 9.422 23.977 9.422z" id="a"/>
  </defs>
  <use fill="#00D244" xlink:href="#a"/>
</svg>
