<svg viewBox="0 0 60 60" xmlns="http://www.w3.org/2000/svg" xmlns:xlink="http://www.w3.org/1999/xlink">
  <defs>
    <path d="M54.953 57c1.17 0 2.047-.877 2.047-2.047V5.047c0-.585-.195-.975-.487-1.365a1.346 1.346 0 0 0-.39-.292c-.293-.195-.585-.39-.975-.39H5.047C3.877 3 3 3.877 3 5.047v49.906C3 56.123 3.877 57 5.047 57h49.906zm-47.86-4.094V7.094h43.864L28.83 38.48a117.83 117.83 0 0 0-8.187-13.451c-.585-.877-1.95-1.17-2.827-.487-.975.682-1.17 1.949-.487 2.924 3.509 4.97 6.628 10.332 9.357 15.888.292.682.975 1.17 1.657 1.17.78.097 1.462-.195 1.95-.878l22.613-32.068v41.328H7.094z" id="a"/>
  </defs>
  <use fill="#00D244" xlink:href="#a"/>
</svg>
